<?xml version="1.0" encoding="utf-8"?>
<!-- Generator: Adobe Illustrator 19.1.0, SVG Export Plug-In . SVG Version: 6.00 Build 0)  -->
<svg version="1.1" id="Layer_1" xmlns="http://www.w3.org/2000/svg" xmlns:xlink="http://www.w3.org/1999/xlink" x="0px" y="0px"
	 viewBox="0 0 56.5 57.3" style="enable-background:new 0 0 56.5 57.3;" xml:space="preserve">
<style type="text/css">
	.st0{fill-rule:evenodd;clip-rule:evenodd;fill:#191815;}
	.st1{fill:#FFFFFF;}
	.st2{fill-rule:evenodd;clip-rule:evenodd;fill:#231F20;}
	.st3{fill-rule:evenodd;clip-rule:evenodd;fill:#FFFFFF;}
</style>
<g>
	<path class="st0" d="M27.6,0c5.5,0,6.8,0.2,10.6,1.4c6.6,2.2,10,5.9,12.3,8.7c0,0,1.7,1.9,3.5,5.1c0.7,1.3,1.4,2.3,2.1,5.7
		c0.5,2.1,1,5.8,0.9,8.8c-0.3,4.7-1.2,9.1-4.3,14c-3.1,4.7-5.8,7.6-10.6,10.4c-5.7,3.4-12.5,3.3-14.1,3.2c-1.6-0.1-2.3-0.1-4.4-0.4
		c-0.5-0.1-1.7-0.4-2.4-0.6c-0.6-0.2-2.4-0.7-4.7-1.8c-1-0.5-3.7-2.2-4.5-2.8c-2-1.4-3.8-3-4.8-4.4c-1.7-2.1-8.1-9.7-7-22
		c0-0.3,0.2-4.1,1.8-8.2c1.6-3.9,3.7-6.1,4-6.6c1.5-2.1,4.8-4.9,6.7-5.9c1.9-1.2,5.2-2.7,6.1-3C21.8,0.5,23.7,0.1,27.6,0"/>
	<path class="st1" d="M39.1,53.9c-0.4,0.3-0.3,0.8-0.2,1.2c0.5-0.1,0.9-0.3,1.1-0.5C40,54.3,39.7,53.7,39.1,53.9"/>
	<path class="st1" d="M37.7,54.4c-0.5,0.3-0.3,0.8-0.2,1.2c0.5-0.1,0.9-0.3,1.2-0.4C38.5,54.9,38.3,54.2,37.7,54.4"/>
	<path class="st1" d="M34.7,55.3c-0.5,0.2-0.4,0.7-0.4,1.1c0.5,0,0.9-0.1,1.2-0.2C35.5,55.8,35.4,55.2,34.7,55.3"/>
	<path class="st1" d="M36.2,55c-0.4,0.2-0.4,0.8-0.2,1c0.4-0.1,0.8-0.2,1.1-0.3C37,55.3,36.8,54.9,36.2,55"/>
	<path class="st1" d="M33.3,55.7c-0.4,0.2-0.3,0.6-0.3,1c0.4,0,0.8-0.1,1.1-0.2C34,56.2,33.9,55.6,33.3,55.7"/>
	<path class="st1" d="M32.4,56.2c-0.3-0.5-0.8-0.4-1,0c-0.1,0.2-0.2,0.4-0.1,0.7c0.5,0,0.9,0,1.4-0.1C32.6,56.5,32.5,56.3,32.4,56.2
		"/>
	<path class="st1" d="M28.5,55.8c-0.5,0.1-0.5,0.6-0.6,1c0.5,0.1,0.9,0.1,1.2,0C29.2,56.6,29.2,55.9,28.5,55.8"/>
	<path class="st1" d="M30.1,55.9c-0.4,0.1-0.5,0.7-0.5,0.9c0.4,0,0.8,0,1.2,0C30.8,56.4,30.6,55.9,30.1,55.9"/>
	<path class="st1" d="M26.9,55.9c-0.5,0.1-0.5,0.6-0.5,0.9c0.4,0.1,0.8,0.1,1.1,0C27.5,56.5,27.5,56,26.9,55.9"/>
	<path class="st1" d="M26,56.1c-0.2-0.5-0.6-0.6-1-0.3c-0.1,0.2-0.3,0.3-0.3,0.7c0.5,0.1,0.9,0.2,1.4,0.2
		C26.1,56.5,26.1,56.4,26,56.1"/>
	<path class="st1" d="M10,8.5c0.3-0.5,0-0.8-0.3-1.2C9.4,7.6,9.1,8,8.9,8.2C9.1,8.5,9.5,8.9,10,8.5"/>
	<path class="st1" d="M12.2,6.6c0.3-0.4,0.1-0.7-0.1-1c-0.4,0.2-0.7,0.5-0.9,0.6C11.4,6.4,11.7,6.9,12.2,6.6"/>
	<path class="st1" d="M11.1,7.4c0.3-0.3,0-0.8-0.2-1c-0.3,0.2-0.6,0.4-0.9,0.7C10.3,7.5,10.6,7.7,11.1,7.4"/>
	<path class="st1" d="M13.3,5.7c0.3-0.3,0.1-0.6-0.1-0.9c-0.4,0.2-0.6,0.4-0.8,0.6C12.5,5.5,12.8,5.9,13.3,5.7"/>
	<path class="st1" d="M13.9,5c0.4,0.3,0.8,0.1,0.9-0.4c0-0.2,0-0.4-0.2-0.7c-0.4,0.2-0.8,0.4-1.2,0.7C13.6,4.8,13.7,4.8,13.9,5"/>
	<path class="st1" d="M17.2,3.7c0.4-0.3,0.2-0.7,0.1-1.1c-0.4,0.1-0.8,0.3-1.1,0.4C16.3,3.4,16.6,3.9,17.2,3.7"/>
	<path class="st1" d="M15.9,4.3c0.4-0.2,0.2-0.8,0-1c-0.4,0.1-0.7,0.3-1,0.5C15.1,4.2,15.4,4.5,15.9,4.3"/>
	<path class="st1" d="M18.5,3.1c0.4-0.3,0.2-0.7,0.1-1c-0.4,0.1-0.7,0.3-1,0.4C17.7,2.7,17.9,3.2,18.5,3.1"/>
	<path class="st1" d="M19.2,2.4c0.4,0.4,0.8,0.2,1-0.2c0-0.2,0.1-0.4,0-0.7c-0.4,0.1-0.8,0.2-1.3,0.4C19,2.2,19.1,2.3,19.2,2.4"/>
	<path class="st1" d="M23.8,55.5c-0.5,0-0.6,0.5-0.7,0.8c0.4,0.2,0.8,0.2,1.1,0.2C24.2,56.2,24.3,55.6,23.8,55.5"/>
	<path class="st1" d="M22.3,55.1c-0.5,0-0.6,0.5-0.8,0.8c0.4,0.2,0.9,0.3,1.1,0.3C22.7,55.9,22.9,55.3,22.3,55.1"/>
	<path class="st1" d="M19.5,54.2c-0.5-0.1-0.6,0.4-0.8,0.7c0.4,0.2,0.8,0.3,1,0.4C19.8,55,20,54.5,19.5,54.2"/>
	<path class="st1" d="M20.8,54.8c-0.4-0.1-0.7,0.4-0.7,0.6c0.3,0.1,0.7,0.2,1,0.3C21.3,55.4,21.3,55,20.8,54.8"/>
	<path class="st1" d="M18.1,53.8c-0.4-0.1-0.6,0.3-0.7,0.6c0.3,0.2,0.7,0.3,0.9,0.4C18.5,54.5,18.6,54,18.1,53.8"/>
	<path class="st1" d="M17.2,53.6c0-0.5-0.4-0.7-0.8-0.6c-0.2,0.1-0.4,0.2-0.5,0.5c0.4,0.2,0.7,0.4,1.2,0.6
		C17.2,54,17.2,53.8,17.2,53.6"/>
	<path class="st1" d="M14.4,51.5c-0.4-0.2-0.7,0.2-0.9,0.5c0.3,0.3,0.6,0.5,0.9,0.6C14.5,52.3,14.8,51.9,14.4,51.5"/>
	<path class="st1" d="M15.4,52.3c-0.4-0.2-0.7,0.3-0.8,0.5c0.3,0.2,0.6,0.4,0.9,0.5C15.7,53,15.8,52.6,15.4,52.3"/>
	<path class="st1" d="M13.1,50.8c-0.4-0.2-0.6,0.2-0.8,0.4c0.3,0.3,0.6,0.4,0.8,0.6C13.2,51.6,13.5,51.1,13.1,50.8"/>
	<path class="st1" d="M12.1,50.5c0.1-0.5-0.3-0.8-0.7-0.7c-0.2,0.1-0.4,0.1-0.5,0.4c0.4,0.3,0.6,0.5,1.1,0.8
		C12.1,50.8,12.1,50.7,12.1,50.5"/>
	<path class="st1" d="M55.3,32.2c0.1,0.5,0.6,0.6,1,0.7c0.1-0.5,0.1-0.9,0.1-1.2C56,31.6,55.4,31.6,55.3,32.2"/>
	<path class="st1" d="M55,33.7c0.1,0.5,0.6,0.6,1,0.8c0.1-0.5,0.2-0.9,0.2-1.2C55.8,33.2,55.2,33.1,55,33.7"/>
	<path class="st1" d="M54.3,36.7c0,0.5,0.4,0.7,0.8,0.9c0.2-0.4,0.3-0.9,0.4-1.2C55.2,36.3,54.6,36.1,54.3,36.7"/>
	<path class="st1" d="M54.8,35.3c-0.1,0.4,0.5,0.7,0.7,0.7c0.1-0.4,0.2-0.7,0.3-1.1C55.4,34.7,55,34.7,54.8,35.3"/>
	<path class="st1" d="M53.9,38.2c0,0.5,0.4,0.6,0.7,0.8c0.2-0.4,0.3-0.8,0.4-1C54.7,37.8,54.2,37.6,53.9,38.2"/>
	<path class="st1" d="M53.9,39.2c-0.5,0-0.6,0.4-0.5,0.8c0.1,0.2,0.2,0.4,0.5,0.4c0.2-0.4,0.4-0.7,0.5-1.2
		C54.2,39.2,54.1,39.2,53.9,39.2"/>
	<path class="st1" d="M52.1,42c-0.1,0.4,0.2,0.7,0.5,0.9c0.3-0.3,0.4-0.7,0.5-0.9C52.9,41.8,52.4,41.5,52.1,42"/>
	<path class="st1" d="M52.8,40.9c-0.1,0.4,0.3,0.7,0.5,0.7c0.2-0.3,0.3-0.6,0.5-0.9C53.4,40.6,53,40.5,52.8,40.9"/>
	<path class="st1" d="M51.5,43.2c-0.1,0.4,0.2,0.6,0.4,0.8c0.2-0.3,0.4-0.6,0.5-0.8C52.2,43,51.8,42.7,51.5,43.2"/>
	<path class="st1" d="M51.3,44c-0.5-0.1-0.7,0.2-0.6,0.6c0.1,0.2,0.2,0.4,0.4,0.5c0.2-0.3,0.4-0.5,0.7-0.9
		C51.6,44.1,51.5,44.1,51.3,44"/>
	<path class="st1" d="M49.9,45.4c-0.2,0.5,0.2,0.7,0.4,1c0.3-0.3,0.5-0.6,0.7-0.9C50.7,45.2,50.3,44.9,49.9,45.4"/>
	<path class="st1" d="M49,46.4c-0.2,0.5,0.2,0.8,0.4,1c0.3-0.3,0.5-0.6,0.6-0.9C49.8,46.3,49.4,46,49,46.4"/>
	<path class="st1" d="M47.2,48.6c-0.3,0.4,0.1,0.7,0.3,1c0.4-0.3,0.6-0.6,0.8-0.8C48,48.6,47.6,48.2,47.2,48.6"/>
	<path class="st1" d="M48.2,47.6c-0.2,0.3,0.1,0.8,0.3,0.9c0.3-0.2,0.5-0.5,0.7-0.8C48.9,47.4,48.5,47.2,48.2,47.6"/>
	<path class="st1" d="M46.3,49.6c-0.2,0.4,0.1,0.7,0.2,0.9c0.3-0.2,0.5-0.5,0.7-0.7C47.1,49.6,46.7,49.2,46.3,49.6"/>
	<path class="st1" d="M45.9,50.4c-0.5-0.2-0.8,0-0.8,0.5c0,0.2,0,0.4,0.3,0.6c0.3-0.3,0.6-0.4,1-0.8C46.2,50.5,46,50.4,45.9,50.4"/>
	<path class="st1" d="M42.9,52c-0.3,0.4-0.1,0.7,0,1c0.4-0.2,0.7-0.4,0.9-0.6C43.7,52.2,43.4,51.7,42.9,52"/>
	<path class="st1" d="M44,51.3c-0.3,0.3,0,0.8,0.1,0.9c0.3-0.2,0.6-0.4,0.9-0.6C44.8,51.3,44.5,51.1,44,51.3"/>
	<path class="st1" d="M41.8,52.8c-0.3,0.3-0.1,0.6,0,0.9c0.4-0.1,0.6-0.4,0.8-0.5C42.5,53,42.3,52.6,41.8,52.8"/>
	<path class="st1" d="M41.2,53.5c-0.4-0.3-0.7-0.1-0.8,0.3c0,0.2,0,0.4,0.1,0.6c0.4-0.2,0.7-0.3,1.1-0.5
		C41.5,53.8,41.3,53.7,41.2,53.5"/>
	<path class="st1" d="M23.4,0.7c0,0.2,0.1,0.5,0.3,0.6c0.4,0.3,0.9,0.2,0.9-0.8C24.3,0.6,23.8,0.6,23.4,0.7"/>
	<path class="st1" d="M22.3,1.8c0.7,0.3,0.9-0.5,0.8-1.1c-0.4,0.1-0.9,0.2-1.2,0.3C21.9,1.4,22.1,1.7,22.3,1.8"/>
	<path class="st1" d="M20.5,1.5c0,0.2,0.2,0.5,0.4,0.6c0.4,0.2,0.7,0.1,0.8-0.3c0-0.3,0-0.5-0.1-0.7C21.2,1.2,20.7,1.4,20.5,1.5"/>
	<path class="st1" d="M28,0.4c-0.1,0.4,0.2,0.8,0.4,0.9c0.2,0,0.4,0,0.5-0.2c0.1-0.2,0.2-0.4,0.2-0.6C28.7,0.3,28.3,0.4,28,0.4"/>
	<path class="st1" d="M26.3,0.4c0,0.5,0.5,1,0.9,0.8c0.2-0.1,0.4-0.6,0.3-0.9C27.2,0.3,26.7,0.4,26.3,0.4"/>
	<path class="st1" d="M30,1.3c0.3-0.1,0.4-0.6,0.3-0.9c-0.2,0-0.6-0.1-0.9-0.1C29.4,0.6,29.5,1.5,30,1.3"/>
	<path class="st1" d="M25.1,1.1C25.5,1.4,26,1.2,26,0.5c-0.3,0-0.8,0-1.1,0.1C24.9,0.7,25,0.9,25.1,1.1"/>
	<path class="st1" d="M37.5,2.5c0.3,0,0.6-0.4,0.6-0.7c-0.4-0.2-0.7-0.3-1.1-0.3C36.9,1.9,36.9,2.5,37.5,2.5"/>
	<path class="st1" d="M38.4,2.6c0.3,0.4,0.6,0.5,1,0.1c0.1-0.2,0.2-0.3,0.2-0.5c-0.4-0.1-0.7-0.3-1.2-0.4
		C38.3,2.2,38.3,2.3,38.4,2.6"/>
	<path class="st1" d="M40.5,3.7c0.4-0.1,0.5-0.4,0.6-0.7c-0.3-0.2-0.7-0.4-1.2-0.5C39.7,2.9,39.7,3.9,40.5,3.7"/>
	<path class="st1" d="M41.4,4.1c0.1,0.3,0.5,0.4,0.9,0.1c0.2-0.2,0.3-0.3,0.3-0.5c-0.1,0-0.7-0.6-1.1-0.6
		C41.3,3.5,41.3,3.8,41.4,4.1"/>
	<path class="st1" d="M43,5.3c0.5,0.2,0.9-0.2,1.1-0.6c-0.2-0.2-1-0.7-1.1-0.7C42.7,4.4,42.6,5,43,5.3"/>
	<path class="st1" d="M44.5,6.1c0.3,0.2,0.6,0.1,1.1-0.3c-0.4-0.3-0.7-0.6-1.1-0.8C44.2,5.4,44.1,5.9,44.5,6.1"/>
	<path class="st1" d="M45.7,6.7c0,0.3,0.2,0.4,0.4,0.4C46.4,7,46.6,7,46.7,6.8c-0.2-0.2-0.6-0.6-0.8-0.8C45.8,6.2,45.7,6.3,45.7,6.7
		"/>
	<path class="st1" d="M46.9,8.2c0.4,0.3,0.9-0.1,1-0.4c-0.3-0.3-0.6-0.7-1-0.9C46.3,7.8,46.9,8.2,46.9,8.2"/>
	<path class="st1" d="M2,33.2c-0.3-0.5-0.7-0.4-1.1-0.3c0,0.5,0.2,0.9,0.3,1.2C1.5,34,2.2,33.9,2,33.2"/>
	<path class="st1" d="M1.8,31.6c-0.2-0.5-0.8-0.4-1.2-0.4c0,0.5,0.1,1,0.2,1.3C1.2,32.4,1.9,32.3,1.8,31.6"/>
	<path class="st1" d="M1.5,28.5c-0.1-0.5-0.6-0.5-1-0.6c-0.1,0.5,0,0.9,0,1.2C0.8,29.2,1.5,29.2,1.5,28.5"/>
	<path class="st1" d="M1.5,30c-0.1-0.4-0.7-0.5-0.9-0.4c0,0.4,0,0.8,0.1,1.2C1.1,30.7,1.5,30.6,1.5,30"/>
	<path class="st1" d="M1.5,26.9c-0.1-0.5-0.6-0.5-0.9-0.5c-0.1,0.4-0.1,0.8,0,1.1C0.8,27.5,1.4,27.5,1.5,26.9"/>
	<path class="st1" d="M1.1,25.9c0.5-0.2,0.5-0.6,0.2-0.9c-0.2-0.1-0.3-0.3-0.6-0.3c-0.1,0.4-0.1,0.8-0.1,1.3C0.8,26,0.9,26,1.1,25.9
		"/>
	<path class="st1" d="M1.9,22.6c0-0.5-0.4-0.5-0.7-0.7c-0.2,0.4-0.2,0.8-0.2,1C1.2,23,1.7,23.1,1.9,22.6"/>
	<path class="st1" d="M1.6,23.8c0-0.4-0.5-0.5-0.7-0.5c-0.1,0.3-0.1,0.6-0.2,1C1.1,24.4,1.5,24.3,1.6,23.8"/>
	<path class="st1" d="M2.2,21.2c0-0.4-0.4-0.5-0.7-0.6c-0.2,0.4-0.2,0.7-0.2,1C1.5,21.6,2,21.7,2.2,21.2"/>
	<path class="st1" d="M8.4,46.4c-0.5-0.3-0.8,0-1.1,0.3c0.3,0.4,0.6,0.7,0.8,0.9C8.3,47.4,8.8,46.9,8.4,46.4"/>
	<path class="st1" d="M7.4,45.2c-0.4-0.3-0.8,0-1.2,0.2c0.2,0.4,0.6,0.7,0.8,1C7.3,46.2,7.8,45.8,7.4,45.2"/>
	<path class="st1" d="M5.6,42.7c-0.4-0.4-0.8-0.1-1.2,0c0.2,0.5,0.4,0.8,0.6,1.1C5.4,43.6,5.9,43.3,5.6,42.7"/>
	<path class="st1" d="M6.4,44c-0.3-0.3-0.9-0.1-1,0.1c0.2,0.4,0.4,0.7,0.6,1C6.4,44.8,6.7,44.5,6.4,44"/>
	<path class="st1" d="M4.8,41.4c-0.3-0.4-0.7-0.1-1,0c0.1,0.4,0.4,0.7,0.5,1C4.6,42.2,5.1,42,4.8,41.4"/>
	<path class="st1" d="M4,40.7c0.3-0.4,0.1-0.8-0.3-0.9c-0.2,0-0.4-0.1-0.6,0.1c0.2,0.4,0.3,0.7,0.5,1.2C3.8,40.9,3.9,40.8,4,40.7"/>
	<path class="st1" d="M3.1,37.4c-0.2-0.4-0.6-0.3-1-0.2c0.1,0.4,0.2,0.8,0.3,1C2.7,38.1,3.3,37.9,3.1,37.4"/>
	<path class="st1" d="M3.5,38.7c-0.2-0.3-0.7-0.2-0.9-0.1c0.1,0.3,0.2,0.6,0.3,0.9C3.4,39.4,3.7,39.2,3.5,38.7"/>
	<path class="st1" d="M2.6,36.1c-0.2-0.4-0.6-0.2-0.9-0.2c0.1,0.4,0.2,0.7,0.3,0.9C2.2,36.7,2.7,36.6,2.6,36.1"/>
	<path class="st1" d="M54.2,19.3c0.3,0.4,0.7,0.3,1.1,0.2c-0.1-0.4-0.2-0.8-0.4-1.1C54.6,18.5,54,18.7,54.2,19.3"/>
	<path class="st1" d="M54.6,20.8c0.3,0.4,0.8,0.3,1.1,0.2c-0.1-0.4-0.2-0.8-0.4-1.1C55.1,20,54.5,20.2,54.6,20.8"/>
	<path class="st1" d="M55.2,23.6c0.2,0.5,0.7,0.4,1,0.4c0-0.5-0.1-0.9-0.2-1.1C55.7,22.9,55.1,23,55.2,23.6"/>
	<path class="st1" d="M55.1,22.2c0.1,0.4,0.7,0.4,0.9,0.3c0-0.4-0.1-0.7-0.2-1.1C55.4,21.4,55,21.6,55.1,22.2"/>
	<path class="st1" d="M55.5,25c0.1,0.4,0.5,0.4,0.8,0.4c0-0.4,0-0.7-0.1-1C56,24.4,55.5,24.5,55.5,25"/>
	<path class="st1" d="M55.9,25.9c-0.4,0.3-0.4,0.7,0,1c0.2,0.1,0.4,0.2,0.7,0.2c0-0.5,0-0.8-0.1-1.4C56.2,25.7,56.1,25.8,55.9,25.9"
		/>
	<path class="st1" d="M55.6,29.4c0.1,0.5,0.5,0.5,0.9,0.6c0.1-0.4,0.1-0.8,0.1-1.1C56.3,28.8,55.7,28.8,55.6,29.4"/>
	<path class="st1" d="M55.8,28c0.1,0.4,0.6,0.5,0.8,0.4c0-0.4,0-0.7,0-1C56.2,27.4,55.8,27.5,55.8,28"/>
	<path class="st1" d="M55.7,30.8c0.1,0.4,0.5,0.4,0.8,0.5c0.1-0.4,0.1-0.7,0-1C56.2,30.3,55.7,30.3,55.7,30.8"/>
	<path class="st1" d="M2.4,19.8c0-0.2-0.3-0.5-0.6-0.5c-0.1,0.4-0.2,0.6-0.3,0.9C1.9,20.3,2.4,20.3,2.4,19.8"/>
	<path class="st1" d="M2.5,18.9c0.3-0.2,0.4-0.5,0.1-0.8C2.4,18.1,2.3,18,2.2,18C2.1,18.3,2,18.6,1.9,19C2.1,19,2.3,19,2.5,18.9"/>
	<path class="st1" d="M3.3,17.1c-0.2-0.3-0.3-0.4-0.6-0.4c-0.1,0.3-0.3,0.6-0.4,1C2.8,17.8,3.5,17.8,3.3,17.1"/>
	<path class="st1" d="M3.7,16.3c0.3-0.1,0.3-0.4,0.1-0.7c-0.2-0.2-0.3-0.2-0.4-0.2c0,0-0.4,0.6-0.4,0.9C3.2,16.4,3.4,16.4,3.7,16.3"
		/>
	<path class="st1" d="M4.4,14.9c0.1-0.4-0.2-0.7-0.5-0.8c-0.1,0.2-0.5,0.8-0.4,0.9C3.8,15.1,4.2,15.2,4.4,14.9"/>
	<path class="st1" d="M5.1,13.7c0.1-0.3,0.1-0.5-0.3-0.9c-0.2,0.3-0.5,0.6-0.6,0.9C4.5,14,4.9,14.1,5.1,13.7"/>
	<path class="st1" d="M5.5,12.8c0.2,0,0.3-0.2,0.3-0.4c-0.1-0.3-0.1-0.5-0.3-0.6c-0.1,0.2-0.5,0.5-0.6,0.8
		C5.1,12.7,5.2,12.8,5.5,12.8"/>
	<path class="st1" d="M48.8,10.3c0.4,0.3,0.8,0,1.1-0.2c-0.2-0.4-0.5-0.7-0.7-0.9C48.9,9.4,48.5,9.8,48.8,10.3"/>
	<path class="st1" d="M48,9.3c0.3,0.3,0.8-0.1,0.9-0.2c-0.2-0.3-0.5-0.6-0.7-0.8C47.8,8.5,47.6,8.9,48,9.3"/>
	<path class="st1" d="M49.9,11.4c0.4,0.3,0.7,0,1-0.2c-0.2-0.4-0.5-0.6-0.7-0.8C49.9,10.5,49.5,10.9,49.9,11.4"/>
	<path class="st1" d="M50.6,11.9c-0.3,0.5,0,0.8,0.4,0.9c0.2,0,0.4,0,0.7-0.2c-0.2-0.4-0.4-0.7-0.8-1.1
		C50.8,11.5,50.7,11.7,50.6,11.9"/>
	<path class="st1" d="M53.6,15.6c-0.2,0.1-0.4,0.3-0.5,0.5c-0.2,0.5,0.1,0.9,1.1,0.7C54,16.4,53.8,15.9,53.6,15.6"/>
	<path class="st1" d="M52.2,14.8c-0.1,0.8,0.8,0.8,1.3,0.5c-0.2-0.4-0.4-0.9-0.6-1.2C52.4,14.2,52.3,14.5,52.2,14.8"/>
	<path class="st1" d="M52,12.8c-0.2,0-0.4,0.3-0.5,0.6c-0.1,0.4,0.2,0.8,0.5,0.7c0.3-0.1,0.5-0.2,0.7-0.3C52.5,13.5,52.2,13,52,12.8
		"/>
	<path class="st1" d="M53.8,17.5c-0.3,0.4,0.2,0.9,0.9,0.7c-0.1-0.3-0.2-0.7-0.4-1C54.1,17.2,54,17.3,53.8,17.5"/>
	<path class="st1" d="M2.3,34.7c-0.3-0.4-0.7-0.3-1-0.2c0.1,0.4,0.2,0.8,0.3,1C1.9,35.5,2.4,35.3,2.3,34.7"/>
	<path class="st1" d="M31.3,1.3c0.3-0.1,0.5-0.5,0.5-0.8c-0.4-0.1-0.7-0.1-1.1-0.1C30.7,0.9,30.8,1.4,31.3,1.3"/>
	<path class="st1" d="M32.3,1.2c0.3,0.3,0.7,0.3,1-0.1c0.1-0.3,0.1-0.4,0.1-0.5c-0.4,0-0.8-0.1-1.2-0.1C32.1,0.8,32.1,1,32.3,1.2"/>
	<path class="st1" d="M34.6,1.7C35,1.5,35,1.3,35,0.9c-0.4-0.1-0.8-0.2-1.3-0.2C33.5,1.2,33.8,2.1,34.6,1.7"/>
	<path class="st1" d="M35.6,2c0.2,0.3,0.6,0.3,0.9-0.1c0.2-0.3,0.2-0.4,0.2-0.5c-0.1,0-0.8-0.3-1.3-0.3C35.3,1.4,35.3,1.7,35.6,2"/>
	<path class="st1" d="M10.7,48.7c-0.5-0.3-0.8,0.1-1.1,0.4c0.3,0.4,0.7,0.6,0.9,0.8C10.8,49.7,11.2,49.2,10.7,48.7"/>
	<path class="st1" d="M9.6,47.6c-0.5-0.3-0.9,0.1-1.2,0.3c0.3,0.4,0.6,0.7,0.9,0.9C9.6,48.6,10.1,48.1,9.6,47.6"/>
	<path class="st2" d="M3.4,18.4l-1.3-1.3c0,0-1.9-2.4-1.1-6.3c0.5-2.6,2.7-5.1,5.7-6.1c2.2-0.7,3.8-0.5,4.7-0.4
		c1.9,0.3,3.1,1.1,3.1,1.1L14,6c0,0-7.4-1.1-9.7,1.4c-2.3,2.5-3,6.5-3,6.5L3.6,18L3.4,18.4z"/>
	<path class="st3" d="M13,13.9c1.4,0.1,2.4-0.4,2.9-1.2c0.7-1.3,0.9-2.4,0.7-3.8c-0.1-0.5-0.3-1.1-0.5-1.4c-0.4-0.7-1.7-2.2-4.2-2.8
		c-1.3-0.3-2.3-0.4-4.5,0C2.9,6,1.8,9.2,1.6,9.7c-0.6,1.5-0.6,2.5-0.5,3.6C1.2,14.7,2,16.7,3.4,18c1.1,1,1.8,1.3,2.8,1.8
		c0.7,0.4,2,0.9,2.8,1.2c1.5,0.6,3.5,1.6,3.5,3.6c0,1.8-2.2,3.3-3.1,2.3c-1.1-1.4,1.6-2.6,2.6-2.2c0.2-0.2,0.1-1-0.2-1.3
		C10.1,23,8,23.1,6.6,24.2c-0.7,0.7-1.6,2.1-1.2,3.8c0.2,0.8,0.9,1.9,1.8,2.3c0.7,0.4,1.4,0.5,2.7,0.3c1.2-0.1,1.8-0.5,2.5-1.1
		c1.1-0.8,1.7-1.8,2.2-3c0.5-1.3,0.5-2.9,0.1-4.2c-0.5-1.8-1.3-3-3.3-4.5c-0.7-0.6-2.1-1.5-3.1-2.2c-0.7-0.5-1.6-1.2-1.9-2.3
		c-0.5-1.8,0.4-3,1.3-3.6C8.6,9.5,9.4,9.3,10,9.3c0.9,0,1.5,0.3,1.9,0.7c0.5,0.5,0.2,1.5-0.4,1.6C11,12.3,11.6,13.8,13,13.9"/>
	<path class="st3" d="M17.7,22.7c1.2-1.3,2.3-2.8,2.5-3.3c0.1-0.3,0.7-1.3,0.9-1.6c0.4-0.8,0.9-1.8,1.1-2.6c0.4-1.5,0.9-3.4-0.1-4.9
		c-0.9-0.9-2-0.7-2.4-0.5c-0.9,0.4-1.9,1.3-2.1,3.5c-0.1,1.1-0.2,2-0.1,3.3c0.1,1.2,0.2,2.8,0.3,3.9c0.2-0.3,0.6-0.6,1.1-1.4
		c0.4-0.5,0.5-0.8,0.6-1.1c0-0.1-0.1-1.1-0.1-1.2c-0.1-0.7-0.1-1.3-0.1-2c0-0.7,0.1-1.7,0.3-2.1c0.5-0.7,1.1-0.3,1.3,0.6
		c0,0.2,0.1,0.4,0.1,0.6c0,1.2-0.2,1.9-0.4,2.5c-0.5,1.4-1.2,2.5-2,3.6c-0.5,0.7-1.9,2.2-3.2,3c0.1,0.1,0.2,1.1,0.1,1.5
		C16.2,24.1,16.9,23.5,17.7,22.7"/>
	<path class="st3" d="M30.1,24.5c0.3-0.5,0.3-0.4,0.3-0.4c0.1,0,0.3,0.5,0.7,0.8c0.9,0.6,1.6,0.7,2.5,0.2c0.8-0.7,1.1-1,1.5-1.5
		c0.2-0.3,1.1-1.7,1.2-2.1c0.1-0.1,1.1-2.3,1.2-2.7c0.7-1.5,1.2-3.4,1.3-5.2c0-1.3-0.8-2.7-1.8-2.8c-1,0-2,0.7-2.4,2.1
		c-0.7,2.3-0.5,7.4-0.3,9.2c0.3-0.4,0.7-1,1.2-2c0.3-0.5,0.4-0.8,0.5-1.2c-0.1-0.5-0.1-2.5-0.1-2.8c0.1-1.7,0.5-3.6,1.3-2.9
		c0.2,0.2,0.3,1.3,0,2.9c-0.3,1.8-1.6,5.3-3.3,6.8c-0.6,0.5-1.1,0.6-1.6,0.2c-0.6-0.5-0.4-2.9-0.4-4.3c-0.1-0.3-0.2-0.5-0.9-0.4
		c-0.3,0-0.5,0.2-0.5,0.3c0,0.3,0,0.7,0.1,1.1c0,0.1,0,0.6,0,0.8c0,0.4,0,0.7-0.1,1.1c-0.1,0.6-0.4,1.1-0.7,1.7
		c-0.3,0.6-0.5,0.8-0.9,1.2c-0.3,0.3-0.8,0.7-1.1,0.9C28.7,25.9,29.6,25.1,30.1,24.5"/>
	<path class="st3" d="M39.2,22.2c1.9-0.7,2.4-2.1,2.4-3.2c0-1.8-2-2.6-3.3-1.4c-0.2,0.6-0.4,1-0.6,1.6c0.2,0,0.4-0.2,0.8-0.3
		c0.7,0,0.9,0.3,1,0.7c0,0.7-0.5,1.3-1,1.4c-0.2,0-0.6,0-0.6-0.2c0-0.2,0.1-0.2,0.2-0.1c0.1,0,0.1,0,0.2-0.1
		c-0.1-0.6-0.8-0.5-1.1-0.1c-0.2,0.2-0.6,0.9,0,1.6C37.7,22.6,38.4,22.5,39.2,22.2"/>
	<path class="st3" d="M19.5,20.9c-0.3,0.5-0.6,0.8-1,1.3c-0.2,0.2-0.4,0.4-0.4,0.4c0,0.3,0.1,1.3,0.2,1.6c0.1,0.4,0.1,0.8,0.1,1
		c0.1,0.5,0.2,0.9,0.9,0.9c0.5,0.1,1.1-0.3,1.1-0.6c-0.2-1.3-0.1-2.5,0.2-3.4c0.3-0.7,0.5-1.1,0.9-1.2c0.2-0.1,0.4,0.2,0.5,0.4
		c0.4,2,1,3.1,1.3,3.6c0.8,1.1,2.1,1.4,2.9,1.1c0.9-0.3,1.9-1,2.3-1.4c0.7-0.8,1.5-1.8,1.7-3c0.2-0.9,0.4-2-0.2-2.7
		c-0.2-0.2-0.3-0.3-1.1-0.3c-1.9-0.1-3.8,2.9-2.6,5.7c0.6-0.2,1.4-0.8,1.6-1.3c0-0.5-0.1-1.3,0.2-1.8c0.2-0.4,0.5-0.7,0.7-0.5
		c0.3,0.3,0.2,0.7,0.1,1c-0.1,0.4-0.3,0.9-0.7,1.4c-0.8,0.9-1.5,1.6-3,1.5c-0.5,0-0.9-0.9-1.1-1.4c-0.1-0.5-0.4-1.4-0.5-2.1
		c-0.1-0.8-0.4-1.6-0.5-1.9c-0.5-1-2-0.7-2.8,0.5C20,20.2,20,20.2,19.5,20.9"/>
	<path class="st3" d="M44.2,28.3c0.2,0.2,0.9,0.4,1.8,0.4c1.2-0.1,2-0.7,2.2-0.8c0.6-0.5,0.9-0.9,1.2-1.4c0.2-0.3,0.2-0.5,0.4-0.9
		c0.6-1.9,1-3.9,0.5-5.8c-0.2-0.5-0.5-0.9-1.1-0.8c-0.8,0.1-1.5,0.8-1.7,2.4c-0.2,1.6-0.2,2.6-0.1,3.8c0.4-0.1,0.7-0.7,0.9-1.2
		c0.1-0.2,0.2-0.2,0.2,0c0,0.2-0.5,1.2-1.1,1.7c-0.7,0.6-2,0.9-2.8-0.7c-0.6,0.9-0.8,1.1-1.5,1.7C43.3,27.3,43.6,27.9,44.2,28.3"/>
	<path class="st3" d="M38.9,26c0.6,0.7,1.9,1.3,3,0.9c1.5-0.5,2.1-1.6,2.5-2.2c0.2-0.3,0.5-1.1,0.5-1.4c0.2-0.6,0.4-1.1,0.5-1.9
		c0.1-0.4,0.1-0.9,0.1-1.2c0-0.7-0.7-1.5-1.6-1.1c-0.4,0.2-0.9,0.9-1.1,1.5c-0.3,0.9-0.5,2.1-0.4,3.4c0.1,0,0.1-0.1,0.1-0.1
		c0.4-0.3,0.5-0.9,0.6-0.8c0.2,0.1,0.1,0.5-0.4,1c-0.5,0.4-0.9,0.6-2,0.3c-0.8-0.2-1.4-1.3-1.8-2c-0.5,0.2-0.6,0.1-1.1,0.1
		C37.8,23.3,38.2,25.1,38.9,26"/>
	<path class="st3" d="M35.3,23.6c-0.3,0.5-0.6,0.8-0.8,0.9c-0.1,0.1,0.1,2.3,0.3,2.6c0.2,0.3,0.7,0.5,1.2,0.4
		c0.7-0.2,0.9-0.5,0.8-1.1c-0.1-1.4-0.7-3.8-0.4-5C36.2,22.2,35.8,22.8,35.3,23.6"/>
	<path class="st3" d="M15.5,41c-0.9,0.7-1.7,1.2-2.2,2.2c-0.5,0.8-0.6,1.8-0.1,3c0.1,0.3,0.6,0.8,0.8,1c1,0.8,2.6,0.6,3.6-0.2
		c0.4-0.3,0.8-0.8,0.9-1.1c0.6-1.3,0.3-3,0.2-4.6c-0.1-1.7-0.4-3.1-0.4-4.8c0-0.9-0.1-1.6,0-2.6c0-0.2,0-0.5,0-0.7
		c0.1-0.8,0.2-1.7,0.4-2.4c0.2-1,0.6-1.9,0.3-2.6c-0.2-0.2-0.3-0.3-0.6-0.3c-0.2-0.1-0.7-0.2-0.9-0.1c-0.6,0.2-0.9,0.7-1.2,1.3
		c-0.1,0.3-0.5,1.3-0.5,1.4c-0.2,0.4-0.3,0.7-0.8,1.2c-0.7,0.7-1.4,1.3-2.5,1.7c-0.4,0.1-0.9,0.3-1.3,0.4c-0.9,0.2-1.3,0.1-2.8,0
		c-2.5-0.2-1.8,3,0.2,3.2c1.3,0.1,2.6-0.1,3.7-0.5c0.9-0.4,1.2-0.6,1.8-0.9c1-0.8,1.4-1.3,1.9-2c0.2-0.2,0.3-0.5,0.5-0.4
		c0.2,0.1,0.1,0.3,0.1,1c0,0.4,0,1.3,0.1,2.5c0,1.1,0.2,2.6,0.2,2.8c0.1,0.6,0.1,1.4,0.2,2.3c0,0.1,0.1,1.3,0.1,1.5
		c0,0.5,0,0.7-0.3,1.2c-0.6,0.6-1.5,0.4-1.4-0.5c0.1-0.7,0.8-1.4,1.4-1.7c0-0.5,0-1.3-0.1-1.8C16.2,40.5,15.9,40.7,15.5,41"/>
	<path class="st3" d="M47.4,28.6c0.1,0.4,0.1,0.8,0.2,1.4c0.1,0.4,0.2,1.4,0.3,1.8c0.2,0.8,0.4,1.4,0.6,2.4c0.2,0.8,0.4,1.9,0.5,2.8
		c0.1,1.8-0.1,2.8-0.9,3.7c-0.4,0.5-0.7,0.7-1.2,0.9c-0.8,0.3-1.2,0.3-1.9,0.2c0,0.6,0,1.3-0.2,2c2.4,0.6,4.2-0.1,5.2-0.9
		c0.6-0.6,1.4-1.4,1.7-3.1c0.2-1,0.1-2-0.1-2.7c-0.2-1-0.4-1.7-1.1-3.8c-0.4-1.2-0.9-3-1.1-4.2c-0.2-0.8-0.2-1.3-0.3-1.8
		c0,0-0.2,0.2-0.3,0.3C48.5,28,48.1,28.3,47.4,28.6"/>
	<path class="st3" d="M28.4,36.1c1-1.4,1.8-2.7,2.2-4.5c0.1-0.3,0.1-0.7,0.2-1c0.2-1,0.2-2.9-0.8-3.1c-1.4-0.3-2.4,1.2-2.7,1.8
		c-0.8,1.5-1.5,4.6-1.4,6.9c0.3-0.2,0.9-1.3,1.3-1.8c0.2-0.4,0.3-0.5,0.5-0.8c0.1-0.8,0.7-2.8,1-3.3c0.1-0.2-0.4-0.4-0.2-0.5
		c0.7,0.1,0.4,0.9,0.4,1.5c-0.1,0.6-0.3,1.1-0.6,2c-0.2,0.4-0.4,0.8-0.6,1.2c-0.2,0.2-0.7,1-0.8,1.2c-0.3,0.5-0.5,0.7-0.9,1.2
		c-0.2,0.2-0.7,0.7-0.7,0.9c0,0.2,0,0.3,0.1,0.5c0.2,0.4,0.2,0.5,0.3,0.8C26.7,38.2,27.6,37.2,28.4,36.1"/>
	<path class="st3" d="M20.7,40.3c-0.5,0.5-0.8,1.6-0.2,2.6c0.6,0.9,2.2,1.3,3.1,0.9c0.9-0.4,1.7-1.2,2-2.1c0.6-1.6-0.1-3.3-0.8-4.5
		c-0.4-0.6-1-1.2-1.6-2.1c-0.1-0.2-0.4-0.8-0.4-1c0.1-1.1,0.8-0.6,1.2-1.4c0.2-0.4-0.1-1.1-0.9-0.9c-1.6,0.5-1.7,2.8-2,3.7
		c-0.4,1.3-1.5,2.3-2.4,3.2c0.1,0.2,0.2,1.5,0.2,1.7c0.8-0.7,1.7-1.8,2.2-2.6c0.3-0.4,0.8-1.2,0.8-1.4c0-0.2-0.1-0.1-0.2-0.6
		c-0.1-0.4-0.2-0.8,0-0.7c0.1,0.1,0.3,0.8,0.5,1.1c0.7,1.6,1.5,2.2,1.7,3.3c0.2,0.7,0.1,1.2-0.3,1.8c-0.3,0.3-0.6,0.5-1.1,0.4
		c-0.2-0.1-0.4-0.3-0.5-0.5c0-0.7,1-0.9,1.6-1.3c0-0.4-0.2-0.7-0.3-1C22.6,39.2,21.3,39.7,20.7,40.3"/>
	<path class="st3" d="M42.5,33.1c-0.4-0.2-1.5,0.1-2,0.9c-0.4,0.6-0.7,1.8-1,2.6c-0.4,1.2-0.6,2.1-1.4,3c-1.1,1.2-2.8,2-4.3,1.4
		c-0.3,0.6-0.8,1.2-1.3,1.6c0.6,0.5,1.3,0.7,2.1,0.7c0.7,0.1,1.5-0.1,2-0.3c1.1-0.4,1.8-1.2,2.4-2.1c0.5-0.9,1-1.9,1.5-3.1
		c0.1-0.3,0.2-0.5,0.4-0.5c0.1,0,0.9,1.3,1.3,2.3c0.3,0.7,0.5,1.7,0.5,2.5c0,1-0.4,2-1.4,2c-0.3,0-0.7-0.4-0.6-0.8
		c0.2-0.7,1.2-0.7,1.6-0.5c0.3,0.1,0.3-1.4,0-1.3c-0.7-0.2-1.6,0-2,0.2c-0.2,0.2-0.4,0.3-0.6,0.5c-0.1,0.1-0.3,0.4-0.3,0.6
		c-0.3,0.6-0.4,1.4,0,2.2c0.1,0.3,0.6,0.8,0.8,0.9c0.2,0.2,0.4,0.2,0.7,0.3c0.2,0.1,0.4,0.1,0.6,0.1c1.2,0.1,2-0.3,2.5-1
		c0.5-0.7,0.7-1.1,0.8-2.2c0.1-0.7,0.1-1.3-0.1-2c-0.3-1.1-0.6-1.6-1-2.5c-0.8-1.3-1.2-1.9-1.4-2.3c-0.5-0.9,0-1.7,0.5-1.8
		C43.1,34.1,42.9,33.2,42.5,33.1"/>
	<path class="st3" d="M26.7,38.5c-0.2,0.2-0.4,0.4-0.4,0.4c0,0.2,0.1,0.9,0.2,1.1c0.1,0.4,0.3,0.8,0.4,1.1c0.3,0.6,0.7,1.1,1.3,1.5
		c0.4,0.3,0.8,0.4,1.2,0.5c1.1,0.2,2-0.2,2.7-0.7c0.5-0.4,0.8-0.7,1.2-1.2c0.2-0.3,0.5-0.7,0.6-0.9c0.5-0.8,1-1.6,1.1-2.8
		c0.1-1.1,0-1.8-0.8-2.3c-0.6-0.3-1.1-0.2-1.6,0c-0.6,0.2-1.1,0.8-1.4,1.4c-0.1,0.3-0.3,0.9-0.3,1.1c-0.1,1.2,0.1,2.1,0.3,2.8
		c0.5-0.3,1.1-0.8,1.4-1.2c-0.3-0.4-0.5-1.6,0-2.1c0.4-0.4,0.8-0.3,1,0.1c0.1,0.6-0.1,1.1-0.3,1.5c-0.3,0.5-0.6,0.7-0.9,1.1
		c-0.2,0.2-0.4,0.3-0.7,0.6c-0.1,0-0.5,0.4-1.1,0.5c-0.7,0.1-1.1,0-1.7-0.4c-1-0.9-1.1-1.8-1.3-3.1C27.4,37.8,27.1,38.2,26.7,38.5"
		/>
</g>
</svg>
